<svg xmlns="http://www.w3.org/2000/svg" viewBox="0 0 165.52 105.97" width="165.52" height="105.97"><path d="M150.7 0H14.82C6.64 0 0 6.64 0 14.82v76.33c0 8.18 6.64 14.82 14.82 14.82H150.7c8.18 0 14.82-6.64 14.82-14.82V14.82C165.52 6.64 158.88 0 150.7 0z" fill="#000"/><path d="M41.83 28.81c2.1-2.55 3.51-6.07 3.12-9.59-3.01.15-6.67 2.01-8.81 4.55-1.94 2.24-3.63 5.82-3.17 9.26 3.36.26 6.78-1.7 8.86-4.22zm.68 4.39c-4.89-.29-9.05 2.78-11.38 2.78-2.33 0-5.93-2.67-9.77-2.6-5.02.07-9.66 2.92-12.24 7.42-5.22 9.05-.13 22.46 3.75 29.8 2.49 3.6 5.45 7.65 9.34 7.51 3.75-.15 5.17-2.42 9.7-2.42 4.53 0 5.82 2.42 9.8 2.34 4.04-.07 6.61-3.68 9.08-7.28 2.86-4.18 4.04-8.23 4.11-8.44-.09-.07-7.88-3.02-7.95-11.99-.07-7.5 6.12-11.09 6.4-11.27-3.51-5.15-8.96-5.71-10.84-5.85zm29.56-9.01v51.97h8.01V56.2h11.06c10.15 0 17.27-6.97 17.27-16.01 0-9.04-7.04-16.01-17.06-16.01H72.07zm8.01 6.83h9.19c6.97 0 10.94 3.71 10.94 9.21 0 5.5-3.97 9.24-10.98 9.24h-9.15V31.02zm41.61 45.43c5.11 0 9.83-2.56 11.97-6.61h.17v6.2h7.39V52.63c0-7.4-5.92-12.17-15.03-12.17-8.44 0-14.69 4.83-14.9 11.48h7.22c.6-3.17 3.53-5.25 7.47-5.25 4.8 0 7.5 2.25 7.5 6.37v2.79l-9.8.59c-9.11.55-14.05 4.3-14.05 10.78 0 6.55 5.08 10.84 12.06 10.84zm2.06-6.02c-4.2 0-6.89-2.01-6.89-5.08 0-3.17 2.48-5.01 7.22-5.29l8.72-.55v2.82c0 4.73-3.91 8.1-9.05 8.1zm35.27 6.02c3.7 0 6.86-.95 8.93-2.68h.24v2.24h7.39V35.04h-7.64v18.95c0 4.87-3.17 7.96-8.05 7.96-4.8 0-7.57-2.86-7.57-7.68V35.04h-7.64v20.05c0 8.3 4.83 13.78 12.58 13.78zm34.44-45.43v51.97h7.64V24.19h-7.64z" fill="#fff"/></svg>
