<svg xmlns="http://www.w3.org/2000/svg" viewBox="0 0 1000.046 323.653" width="1000.046" height="323.653"><path d="M433.398 142.041c-19.332 0-37.281 5.253-46.769 13.441l5.527 26.221c10.524-7.433 25.788-12.192 41.242-12.192 12.541 0 19.323 4.255 19.323 11.355 0 6.018-3.033 9.54-19.77 17.226-28.233 12.9-39.524 27.466-39.524 47.494 0 24.155 17.264 41.311 45.765 41.311 13.663 0 26.467-2.839 35.72-7.513l-5.775-26.224c-8.812 3.973-19.331 6.275-29.945 6.275-12.279 0-18.516-4.534-18.516-11.355 0-6.275 4.536-9.54 22.26-17.744 29.5-13.441 37.281-27.466 37.281-47.494-.001-24.673-18.516-40.301-46.819-40.301zm155.567 1.498h-31.184l-39.523 101.8h35.72l5.527-15.728h33.708l3.033 15.728h38.753l-46.034-101.8zm-23.371 61.454l13.663-37.856 7.528 37.856h-21.191zm-367.019-61.454h-31.184l-39.523 101.8h35.72l5.527-15.728h33.708l3.033 15.728h38.753l-46.034-101.8zm-23.371 61.454l13.663-37.856 7.528 37.856h-21.191zm269.421-61.454h-55.581v101.8h34.449v-33.472h21.132c24.404 0 43.001-12.9 43.001-34.508 0-19.779-13.663-33.82-43.001-33.82zm-1.767 43.845h-19.365v-20.78h19.365c8.812 0 13.663 3.973 13.663 10.248 0 6.275-4.851 10.532-13.663 10.532z" fill="#2566af"/><path d="M146.808 131.992L87.075 235.088h-41.242L16.118 152.62c-.808-2.839-1.515-3.973-3.977-5.253-8.004-4.255-21.191-8.228-32.141-10.532l.808-4.843h75.047c9.62 0 18.516 6.275 20.283 17.226l18.516 77.625 45.765-94.851h39.389z" fill="#e6a540"/><path d="M196.735 142.041c-19.332 0-37.281 5.253-46.769 13.441l5.527 26.221c10.524-7.433 25.788-12.192 41.242-12.192 12.541 0 19.323 4.255 19.323 11.355 0 6.018-3.033 9.54-19.77 17.226-28.233 12.9-39.524 27.466-39.524 47.494 0 24.155 17.264 41.311 45.765 41.311 13.663 0 26.467-2.839 35.72-7.513l-5.775-26.224c-8.812 3.973-19.331 6.275-29.945 6.275-12.279 0-18.516-4.534-18.516-11.355 0-6.275 4.536-9.54 22.26-17.744 29.5-13.441 37.281-27.466 37.281-47.494-.001-24.673-18.516-40.301-46.819-40.301z" fill="#2566af"/></svg>
